<svg xmlns="http://www.w3.org/2000/svg" xmlns:xlink="http://www.w3.org/1999/xlink" xmlns:lucid="lucid" width="1282.84" height="300"><g transform="translate(20 20)" lucid:page-tab-id="0_0"><path d="M0 0h1240v260H0z" stroke="#000" stroke-opacity="0" stroke-width="2" fill="#fff" fill-opacity="0"/><use xlink:href="#a" transform="matrix(1,0,0,1,5,5) translate(7.639999999999873 189)"/><use xlink:href="#b" transform="matrix(1,0,0,1,5,5) translate(570.8399999999999 189)"/><defs><path fill="#333" d="M375-24c-242 5-210-351-131-508 36-70 73-147 167-154 48-4 76 40 76 86 0 63-23 102-35 152 0 23 37 23 49 11 32-31 39-105 39-164 0-86-51-141-137-141-168 0-240 128-292 253-24 57-38 125-38 198C73-76 213 81 440 19 543-9 616-82 666-168c14-24-12-48-26-26-54 88-130 167-265 170" id="c"/><path fill="#333" d="M200-133c0 71 8 148 74 155C373 7 417-79 468-141c11-14 12-40-8-40-16-1-21 16-28 25-28 41-68 90-109 119-15 11-28 16-40 16-33-7-30-60-32-98-3-67 19-116 33-169 0-21-35-19-44-6-42 73-79 165-136 224-18 18-39 18-38-10 6-143 95-218 190-274 12-16-15-40-30-39C114-382 56-282 19-194 5-161 0-131 0-105 0-38 39 29 100-16c39-29 74-77 100-117" id="d"/><path fill="#333" d="M168-213c-1 93-31 237 65 250 96-22 156-110 203-180 14-20-13-45-28-23-33 47-77 103-124 139-15 11-29 17-40 17-18 0-18-23-19-37-2-66 23-119 25-180 4-87-83-90-119-140 4-47 10-114-30-126-65 17-75 147-33 196-9 79-59 133-92 191-16 29 26 30 37 10 45-46 72-113 96-179 26 9 60 27 59 62" id="e"/><path fill="#333" d="M133-28c-35 0-34-53-35-91-4-78 39-128 39-195 0-36-59-20-71-4-28 38-45 105-45 169 0 80 13 165 91 171C217 2 269-91 322-162c5-7 9-17 11-27 4-23-19-29-29-13-35 51-77 118-128 156-16 12-30 18-43 18zm40-423c0-20-14-38-35-38-26 0-48 29-47 53 0 20 13 38 34 38 26 0 49-28 48-53" id="f"/><path fill="#333" d="M59-298C3-208-33 13 120 13c137 0 211-92 264-185 12-23-17-38-30-18-48 70-94 149-203 156-63 4-73-58-60-115 60-25 107-83 139-139 27-47 19-117-40-116-65 1-102 60-131 106zm96-38c15-24 47-31 47 2 0 71-62 113-108 147 11-51 37-111 61-149" id="g"/><g id="a"><use transform="matrix(0.21333333333333335,0,0,0.21333333333333335,0,0)" xlink:href="#c"/><use transform="matrix(0.21333333333333335,0,0,0.21333333333333335,129.06666666666666,0)" xlink:href="#d"/><use transform="matrix(0.21333333333333335,0,0,0.21333333333333335,218.88000000000002,0)" xlink:href="#e"/><use transform="matrix(0.21333333333333335,0,0,0.21333333333333335,302.08,0)" xlink:href="#e"/><use transform="matrix(0.21333333333333335,0,0,0.21333333333333335,385.28,0)" xlink:href="#f"/><use transform="matrix(0.21333333333333335,0,0,0.21333333333333335,441.3866666666667,0)" xlink:href="#g"/></g><path fill="#333" d="M155-86c-44 37-82 2-77-54 13-150 78-271 156-358 56-62 102-100 210-103 35-1 49 16 73 23 14 4 16-21 16-31 0-56-71-72-128-72-193 0-283 157-355 295C17-323-8-246-8-163-8-81 14-4 95-4c125 0 193-117 253-200 23-32 39-62 52-87-13 182-36 374-132 474-20 20-45 29-72 29-57 2-77-40-115-56-9-1-15 10-15 18 22 78 160 102 226 46C443 92 475-168 502-417c3-31 5-62 5-93 9-42-55-43-69-16-37 140-116 269-202 366-28 32-57 54-81 74" id="h"/><path fill="#333" d="M73-9c82-13 133-79 182-126C268-68 284 9 356 17 468 4 512-89 564-162c9-13 12-41-7-43-14-1-25 24-31 32-38 54-77 125-154 138-45-16-39-99-43-155 68-144 155-307 168-504 4-60-27-138-85-98-106 73-134 241-158 397-4 26-4 48-4 67-36-48-114-8-142 16-51 44-95 122-95 209 0 45 16 89 60 94zm355-715c13-19 28-8 26 17-13 168-77 309-131 434 6-147 38-288 79-403 8-22 19-37 26-48zM79-53c-10 0-10-12-10-20 6-86 56-150 112-189 21-14 43-22 66-22 0 30-1 58 2 86-30 45-83 95-128 127-17 12-31 18-42 18" id="i"/><path fill="#333" d="M1 11c0 27 33 34 45 15 63-99 105-218 190-295 14-13 21-1 21 14 0 94-32 239 69 246 101-17 155-104 196-180 12-20-16-43-29-21-27 48-62 104-107 136-14 10-27 16-40 16-30 0-32-30-32-60 0-47 4-93 4-140-1-43-4-93-44-97-80 27-126 118-174 178 5-84 46-138 53-222 3-41-44-40-67-19-31 28-29 81-39 127C27-202 1-93 1 11" id="j"/><g id="b"><use transform="matrix(0.21333333333333335,0,0,0.21333333333333335,0,0)" xlink:href="#h"/><use transform="matrix(0.21333333333333335,0,0,0.21333333333333335,122.66666666666667,0)" xlink:href="#d"/><use transform="matrix(0.21333333333333335,0,0,0.21333333333333335,212.48000000000002,0)" xlink:href="#e"/><use transform="matrix(0.21333333333333335,0,0,0.21333333333333335,295.68,0)" xlink:href="#i"/><use transform="matrix(0.21333333333333335,0,0,0.21333333333333335,403.62666666666667,0)" xlink:href="#j"/><use transform="matrix(0.21333333333333335,0,0,0.21333333333333335,499.84000000000003,0)" xlink:href="#g"/><use transform="matrix(0.21333333333333335,0,0,0.21333333333333335,568.32,0)" xlink:href="#e"/></g></defs></g></svg>